PathFileType	4	(X/Y/Z)	T1_P2_NoVision_NoMovement_4_0-734.trc
DataRate	CameraRate	NumFrames	NumMarkers	Units	OrigDataRate	OrigDataStartFrame	OrigNumFrames
60	60	4	27	m	60	183	734
Frame#	Time	RHip			RKnee			RAnkle			RBigToe			RSmallToe			RHeel			LHip			LKnee			LAnkle			LBigToe			LSmallToe			LHeel			Neck			Head			Nose			RShoulder			RElbow			RWrist			RThumb			RIndex			RPinky			LShoulder			LElbow			LWrist			LThumb			LIndex			LPinky		
		X1	Y1	Z1	X2	Y2	Z2	X3	Y3	Z3	X4	Y4	Z4	X5	Y5	Z5	X6	Y6	Z6	X7	Y7	Z7	X8	Y8	Z8	X9	Y9	Z9	X10	Y10	Z10	X11	Y11	Z11	X12	Y12	Z12	X13	Y13	Z13	X14	Y14	Z14	X15	Y15	Z15	X16	Y16	Z16	X17	Y17	Z17	X18	Y18	Z18	X19	Y19	Z19	X20	Y20	Z20	X21	Y21	Z21	X22	Y22	Z22	X23	Y23	Z23	X24	Y24	Z24	X25	Y25	Z25	X26	Y26	Z26	X27	Y27	Z27
184	3.066666666666667	458.14056079347426	3636.075889009175	529.983866376464	851.2509418129354	3669.1819800756334	526.3379942153846	1262.1922925269282	3786.106521760524	626.9030685667032	1309.885643551896	3594.2913757994975	542.26456366944	1309.407764434471	3672.559182994577	519.5603101170427	1296.6481667853113	3778.2514142479	633.8947754101317	467.38703604577273	3518.0616822921793	716.8580697113214	857.271060143382	3558.6023864114554	730.755894086554	1227.3564099794798	3607.600412641197	727.301927760073	1319.5098814869975	3529.5060865163086	680.2144398492047	1271.7021448654064	3452.8595429031707	715.4174022878952	1264.8215437435913	3611.7992702115107	703.4263220008472	-117.27436251071461	3531.610121735456	649.3829600864941	-376.6926308788927	3488.1883295315292	659.015184489958	-231.58397917284927	3471.011827547002	606.2100233036192	-54.80615514403143	3647.536829850729	548.3544562145179	185.3993553659909	3727.2704616186406	474.17984965007395	356.43033825790025	3516.2703904903155	470.6720714057153	411.22277281960874	3467.7280361576204	498.1973010322159	435.90529314038804	3457.346535972724	529.9560623057629	471.97520239640335	3463.2627232977006	500.248760241328	-9.327917472682891	3507.8105135202045	807.2875619265792	229.13755145911836	3352.2711427903623	701.7107811105336	363.5616610698667	3421.7603895395223	553.6419944164587	417.0523312602503	3465.20280221781	469.915269498227	438.84008404118515	3473.803174082241	477.37396529836275	465.07602462715755	3453.2396812496027	495.13523877725817
185	3.0833333333333335	458.1327332781765	3636.028058671272	529.954515251858	851.7588410623401	3669.8497386018207	526.4992777708749	1259.4521758893757	3792.179238714244	630.0204284414682	1317.3746414928278	3614.9413037403538	547.4319555126854	1309.517520628346	3672.927077938142	519.5799150503328	1288.764880444911	3755.9842426638497	628.4428413699228	467.35283875214606	3518.187997814585	716.9481963553562	862.6129305153584	3560.1059249374725	732.0687136220985	1227.859730026462	3610.9219083168937	723.3556871322385	1311.8444572805258	3509.062436816232	674.4086396971308	1264.6875502149387	3438.6567418029144	702.5316635241143	1265.0119081279836	3611.883579397165	703.2925858143907	-117.26097562685861	3531.7069431213226	649.4216437173359	-372.3965476981225	3484.987230632826	657.4088581547376	-235.66072678344216	3469.7284933198116	605.8064336274532	-59.161011337525615	3646.007220728449	547.7152882768921	185.55336789339057	3727.22015036738	474.1418875401597	356.47165548542824	3516.2662189800785	470.7000723897688	414.4451359538705	3458.393360906942	499.15817157421554	436.11046313766013	3457.0103102576727	529.9299763042249	471.64493366702635	3462.99912699361	500.02412598704774	-9.341166624275225	3507.89003791854	807.3537776142424	229.07667302926376	3352.2053277463247	701.7409010505834	363.46647206190903	3421.60349364595	553.5534715252712	417.05317484781074	3464.986714471894	469.73883125479085	438.762898193881	3473.880145951465	477.43217189896274	460.2740483512749	3451.3693803664337	493.988004066731
186	3.1	461.9903004111408	3631.3925726346984	527.6726538561484	851.9086875000331	3669.4755014263246	526.5724733002612	1262.2939281852334	3786.2364244566666	627.0481304364976	1322.3818727960304	3616.5867632791014	549.0676156128554	1317.3020281767967	3694.1679560862326	524.6061269000403	1296.6552914049605	3778.189123867396	633.9106763965424	467.64803449022116	3518.037726604758	716.8346920899521	862.4286051296201	3559.8580338808442	731.953265925964	1230.1035345353098	3602.735861139034	724.5261402927003	1317.1384620663189	3507.0991572120347	679.5380013362005	1271.8217246633483	3452.6621233283254	715.4065038464834	1265.0826478332551	3611.3813722119057	702.8080800082738	-117.23462064599553	3531.508352051428	649.2845751748214	-372.4012657869411	3484.6981822361686	657.375643645079	-235.57388989015894	3469.497555811169	605.7253597736636	-54.67621372516079	3647.284914225149	548.1820594991034	185.41324097637977	3727.6193559037024	474.4008914980015	352.14414636634825	3514.440038837395	469.6682895393578	414.38442960244424	3458.4995770695464	499.02196532328026	432.9567514021783	3442.6020762132794	517.5247228335414	466.6638527505596	3461.0480343321747	498.7439155418823	-9.446314803978945	3507.924293539472	807.4669645413784	229.0873370413152	3352.3001474312655	701.557164887588	363.5126026318322	3421.6899040234116	553.5009517214229	417.0645800246194	3464.973187479157	469.5538086523721	438.8333903067771	3473.801119606272	477.18911173733306	460.3679972484075	3451.438558978701	493.8654735745317
187	3.1166666666666667	458.3214119206211	3636.199666055321	530.118996689449	852.1164554788207	3669.7501970142257	526.6559052237438	1268.54471641344	3790.526622939723	628.0418054968826	1310.0272443492045	3594.1813417825592	542.0616453874449	1309.610479330686	3672.824021520492	519.4265765876236	1296.756414547066	3778.3575419492668	634.0441137842698	467.5215635563426	3518.0673149526046	716.8582853539419	860.4143373517467	3540.58651388946	716.1028653957721	1236.609436806716	3606.570172207034	725.3998911774412	1311.258726814802	3505.486362060338	677.9411158876947	1277.787365629435	3456.2653093216923	716.2150913029456	1268.0025095205503	3605.552990347979	699.3467656762567	-116.82710877110641	3546.425024790668	662.2954192874888	-372.38785914477256	3484.9147794598216	657.5464396877544	-235.5348284816329	3469.5972248086414	605.7868598342933	-54.85348177311021	3647.2935176522365	548.3413943582292	182.0665200772878	3740.3484351927527	485.7872078088944	352.13975956941977	3514.3289088276174	469.6436493593188	410.83489000467927	3463.347751491503	501.1264192963805	432.8702140461417	3442.159383879977	517.3240159810655	464.06678079013426	3443.47953020981	494.41259001677514	-9.482773772375106	3508.071227089653	807.5897306678243	224.76153468127868	3350.7439539784846	700.7818266878409	363.4266434652911	3421.660454201351	553.5422542920155	416.93567322191836	3464.9177589129968	469.67219208703176	438.75443507041285	3473.7883691415923	477.2959483733632	460.46798578786405	3451.5205707140362	493.9543304176005
